<?xml version="1.0" encoding="UTF-8" standalone="no"?>
<!DOCTYPE svg PUBLIC "-//W3C//DTD SVG 1.1//EN"
 "http://www.w3.org/Graphics/SVG/1.1/DTD/svg11.dtd">
<!-- Generated by graphviz version 2.44.0 (20200518.1210)
 -->
<!-- Title: fsm Pages: 1 -->
<svg width="946pt" height="811pt"
 viewBox="0.00 0.00 945.51 810.86" xmlns="http://www.w3.org/2000/svg" xmlns:xlink="http://www.w3.org/1999/xlink">
<g id="graph0" class="graph" transform="scale(1 1) rotate(0) translate(4 806.86)">
<title>fsm</title>
<polygon fill="white" stroke="transparent" points="-4,4 -4,-806.86 941.51,-806.86 941.51,4 -4,4"/>
<!-- PENDING -->
<g id="node1" class="node">
<title>PENDING</title>
<ellipse fill="none" stroke="black" cx="717.08" cy="-130.3" rx="53.31" ry="18"/>
<text text-anchor="middle" x="717.08" y="-126.1" font-family="Times,serif" font-size="14.00">PENDING</text>
</g>
<!-- CONFIRMED -->
<g id="node2" class="node">
<title>CONFIRMED</title>
<ellipse fill="none" stroke="black" cx="174.83" cy="-130.3" rx="67.8" ry="18"/>
<text text-anchor="middle" x="174.83" y="-126.1" font-family="Times,serif" font-size="14.00">CONFIRMED</text>
</g>
<!-- PENDING&#45;&gt;CONFIRMED -->
<g id="edge1" class="edge">
<title>PENDING&#45;&gt;CONFIRMED</title>
<path fill="none" stroke="black" d="M663.61,-130.3C567.48,-130.3 365.11,-130.3 253.27,-130.3"/>
<polygon fill="black" stroke="black" points="253.07,-126.8 243.07,-130.3 253.07,-133.8 253.07,-126.8"/>
<text text-anchor="middle" x="432.78" y="-134.5" font-family="Times,serif" font-size="14.00"> confirm </text>
</g>
<!-- CANCELED -->
<g id="node3" class="node">
<title>CANCELED</title>
<ellipse fill="none" stroke="black" cx="445.96" cy="-18" rx="62.56" ry="18"/>
<text text-anchor="middle" x="445.96" y="-13.8" font-family="Times,serif" font-size="14.00">CANCELED</text>
</g>
<!-- PENDING&#45;&gt;CANCELED -->
<g id="edge2" class="edge">
<title>PENDING&#45;&gt;CANCELED</title>
<path fill="none" stroke="black" d="M683.29,-116.31C634.82,-96.23 545.42,-59.2 491.26,-36.77"/>
<polygon fill="black" stroke="black" points="492.48,-33.48 481.9,-32.89 489.8,-39.95 492.48,-33.48"/>
<text text-anchor="middle" x="565.9" y="-80.74" font-family="Times,serif" font-size="14.00"> cancel </text>
</g>
<!-- REFUNDED -->
<g id="node5" class="node">
<title>REFUNDED</title>
<ellipse fill="none" stroke="black" cx="62.53" cy="-401.43" rx="62.56" ry="18"/>
<text text-anchor="middle" x="62.53" y="-397.23" font-family="Times,serif" font-size="14.00">REFUNDED</text>
</g>
<!-- PENDING&#45;&gt;REFUNDED -->
<g id="edge5" class="edge">
<title>PENDING&#45;&gt;REFUNDED</title>
<path fill="none" stroke="black" d="M683.27,-144.31C574.31,-189.44 232.27,-331.12 108.12,-382.54"/>
<polygon fill="black" stroke="black" points="106.43,-379.46 98.53,-386.52 109.1,-385.93 106.43,-379.46"/>
<text text-anchor="middle" x="373.93" y="-267.63" font-family="Times,serif" font-size="14.00"> refund </text>
</g>
<!-- CONFIRMED&#45;&gt;CANCELED -->
<g id="edge3" class="edge">
<title>CONFIRMED&#45;&gt;CANCELED</title>
<path fill="none" stroke="black" d="M211.68,-115.04C260.75,-94.72 347.51,-58.78 400.56,-36.81"/>
<polygon fill="black" stroke="black" points="402.16,-39.93 410.06,-32.87 399.48,-33.46 402.16,-39.93"/>
<text text-anchor="middle" x="284.75" y="-80.12" font-family="Times,serif" font-size="14.00"> cancel </text>
</g>
<!-- PRODUCT_PERPARING -->
<g id="node4" class="node">
<title>PRODUCT_PERPARING</title>
<ellipse fill="none" stroke="black" cx="174.83" cy="-672.56" rx="114.64" ry="18"/>
<text text-anchor="middle" x="174.83" y="-668.36" font-family="Times,serif" font-size="14.00">PRODUCT_PERPARING</text>
</g>
<!-- CONFIRMED&#45;&gt;PRODUCT_PERPARING -->
<g id="edge9" class="edge">
<title>CONFIRMED&#45;&gt;PRODUCT_PERPARING</title>
<path fill="none" stroke="black" d="M174.83,-148.35C174.83,-227.8 174.83,-546.85 174.83,-644.2"/>
<polygon fill="black" stroke="black" points="171.33,-644.45 174.83,-654.45 178.33,-644.45 171.33,-644.45"/>
<text text-anchor="middle" x="150.35" y="-400.47" font-family="Times,serif" font-size="14.00"> prepare </text>
</g>
<!-- CONFIRMED&#45;&gt;REFUNDED -->
<g id="edge6" class="edge">
<title>CONFIRMED&#45;&gt;REFUNDED</title>
<path fill="none" stroke="black" d="M167.29,-148.51C148.03,-195.01 96.94,-318.35 73.98,-373.77"/>
<polygon fill="black" stroke="black" points="70.63,-372.72 70.04,-383.3 77.1,-375.4 70.63,-372.72"/>
<text text-anchor="middle" x="98.87" y="-265.34" font-family="Times,serif" font-size="14.00"> refund </text>
</g>
<!-- PRODUCT_PERPARING&#45;&gt;CANCELED -->
<g id="edge4" class="edge">
<title>PRODUCT_PERPARING&#45;&gt;CANCELED</title>
<path fill="none" stroke="black" d="M182.37,-654.37C220.14,-563.16 388.93,-155.69 434.56,-45.53"/>
<polygon fill="black" stroke="black" points="437.87,-46.68 438.46,-36.1 431.4,-44 437.87,-46.68"/>
<text text-anchor="middle" x="287.09" y="-354.15" font-family="Times,serif" font-size="14.00"> cancel </text>
</g>
<!-- PRODUCT_PERPARING&#45;&gt;REFUNDED -->
<g id="edge7" class="edge">
<title>PRODUCT_PERPARING&#45;&gt;REFUNDED</title>
<path fill="none" stroke="black" d="M167.29,-654.35C148.03,-607.85 96.94,-484.51 73.98,-429.09"/>
<polygon fill="black" stroke="black" points="77.1,-427.46 70.04,-419.56 70.63,-430.14 77.1,-427.46"/>
<text text-anchor="middle" x="98.87" y="-545.92" font-family="Times,serif" font-size="14.00"> refund </text>
</g>
<!-- READY_TO_DELIVER -->
<g id="node7" class="node">
<title>READY_TO_DELIVER</title>
<ellipse fill="none" stroke="black" cx="445.96" cy="-784.86" rx="108.23" ry="18"/>
<text text-anchor="middle" x="445.96" y="-780.66" font-family="Times,serif" font-size="14.00">READY_TO_DELIVER</text>
</g>
<!-- PRODUCT_PERPARING&#45;&gt;READY_TO_DELIVER -->
<g id="edge10" class="edge">
<title>PRODUCT_PERPARING&#45;&gt;READY_TO_DELIVER</title>
<path fill="none" stroke="black" d="M215.72,-689.49C264.04,-709.51 344.43,-742.8 396.29,-764.29"/>
<polygon fill="black" stroke="black" points="395.05,-767.56 405.63,-768.15 397.73,-761.09 395.05,-767.56"/>
<text text-anchor="middle" x="289.67" y="-731.09" font-family="Times,serif" font-size="14.00"> send </text>
</g>
<!-- DELIVER_COMPLETE -->
<g id="node6" class="node">
<title>DELIVER_COMPLETE</title>
<ellipse fill="none" stroke="black" cx="829.39" cy="-401.43" rx="108.25" ry="18"/>
<text text-anchor="middle" x="829.39" y="-397.23" font-family="Times,serif" font-size="14.00">DELIVER_COMPLETE</text>
</g>
<!-- DELIVER_COMPLETE&#45;&gt;REFUNDED -->
<g id="edge8" class="edge">
<title>DELIVER_COMPLETE&#45;&gt;REFUNDED</title>
<path fill="none" stroke="black" d="M721.14,-401.43C562.61,-401.43 271.41,-401.43 135.72,-401.43"/>
<polygon fill="black" stroke="black" points="135.43,-397.93 125.43,-401.43 135.43,-404.93 135.43,-397.93"/>
<text text-anchor="middle" x="406.66" y="-405.63" font-family="Times,serif" font-size="14.00"> refund </text>
</g>
<!-- DELIVERING -->
<g id="node8" class="node">
<title>DELIVERING</title>
<ellipse fill="none" stroke="black" cx="717.08" cy="-672.56" rx="69.48" ry="18"/>
<text text-anchor="middle" x="717.08" y="-668.36" font-family="Times,serif" font-size="14.00">DELIVERING</text>
</g>
<!-- READY_TO_DELIVER&#45;&gt;DELIVERING -->
<g id="edge11" class="edge">
<title>READY_TO_DELIVER&#45;&gt;DELIVERING</title>
<path fill="none" stroke="black" d="M486.55,-768.05C535.92,-747.6 619.06,-713.16 670.85,-691.71"/>
<polygon fill="black" stroke="black" points="672.24,-694.92 680.14,-687.86 669.56,-688.45 672.24,-694.92"/>
<text text-anchor="middle" x="542.16" y="-734.08" font-family="Times,serif" font-size="14.00"> startDeliver </text>
</g>
<!-- DELIVERING&#45;&gt;DELIVER_COMPLETE -->
<g id="edge12" class="edge">
<title>DELIVERING&#45;&gt;DELIVER_COMPLETE</title>
<path fill="none" stroke="black" d="M724.63,-654.35C743.89,-607.85 794.98,-484.51 817.93,-429.09"/>
<polygon fill="black" stroke="black" points="821.29,-430.14 821.88,-419.56 814.82,-427.46 821.29,-430.14"/>
<text text-anchor="middle" x="751.46" y="-545.92" font-family="Times,serif" font-size="14.00"> arrive </text>
</g>
</g>
</svg>
